<?xml version="1.0" standalone="no"?><!DOCTYPE svg PUBLIC "-//W3C//DTD SVG 1.1//EN" "http://www.w3.org/Graphics/SVG/1.1/DTD/svg11.dtd"><svg t="1528113881297" class="icon" style="" viewBox="0 0 1024 1024" version="1.1" xmlns="http://www.w3.org/2000/svg" p-id="2235" xmlns:xlink="http://www.w3.org/1999/xlink" width="20" height="20"><defs><style type="text/css"></style></defs><path d="M679.4 115.4C634.7 70.7 575.2 46.1 512 46.1s-122.7 24.6-167.4 69.3-69.3 104.1-69.3 167.4 24.6 122.7 69.3 167.4c44.7 44.7 104.1 69.3 167.4 69.3 63.2 0 122.7-24.6 167.4-69.3 44.7-44.7 69.3-104.1 69.3-167.4s-24.6-122.7-69.3-167.4z" fill="#ffffff" p-id="2236"></path><path d="M512 989.3c-130.8 0-257.1-27.9-375.4-82.9-7.8-3.6-12.9-11.3-13.1-19.9 0-1.2-0.1-2.5-0.2-3.9-0.2-2.4-0.4-5.1-0.4-8.1 0-131.4 65.8-253 175.9-325.3 10.5-6.9 24.6-4 31.5 6.5 6.9 10.5 4 24.6-6.5 31.5-96.3 63.3-154.2 169.1-155.4 283.8 108.6 48.4 224.1 72.9 343.7 72.9 119.5 0 235.1-24.5 343.7-72.9-1.1-105.2-49.1-202.5-132.3-267.5-7.3-5.7-15-11.2-22.9-16.4-10.5-6.9-13.4-21-6.5-31.5s21-13.4 31.5-6.5c9 5.9 17.7 12.1 25.9 18.6 45.6 35.6 83.3 81.7 109.1 133.4 27 54.2 40.7 112.5 40.7 173.5 0 3-0.2 5.7-0.4 8.1-0.1 1.4-0.2 2.8-0.2 3.9-0.3 8.6-5.3 16.3-13.1 19.9-118.5 54.9-244.8 82.8-375.6 82.8z" fill="#ffffff" p-id="2237"></path></svg>