<?xml version="1.0" standalone="no"?><!DOCTYPE svg PUBLIC "-//W3C//DTD SVG 1.1//EN" "http://www.w3.org/Graphics/SVG/1.1/DTD/svg11.dtd"><svg t="1528012919136" class="icon" style="" viewBox="0 0 1024 1024" version="1.1" xmlns="http://www.w3.org/2000/svg" p-id="2033" xmlns:xlink="http://www.w3.org/1999/xlink" width="28" height="28"><defs><style type="text/css"></style></defs><path d="M831.87 186.59H192.13A127.61 127.61 0 0 0 64.67 314.05v395.9a127.61 127.61 0 0 0 127.46 127.46h639.74a127.61 127.61 0 0 0 127.46-127.46V486.77a28 28 0 1 0-55.92 0v223.18a71.62 71.62 0 0 1-71.54 71.54H192.13a71.62 71.62 0 0 1-71.54-71.54v-395.9a71.62 71.62 0 0 1 71.54-71.54h639.74a71.62 71.62 0 0 1 71.54 71.54v28.18H197a28 28 0 1 0 0 55.92h734.38a28 28 0 0 0 28-28v-56.1a127.61 127.61 0 0 0-127.51-127.46z" fill="#8A8A8A" p-id="2034"></path><path d="M376.9 458l-55.12 163.11L266.66 458a28 28 0 0 0-53 17.91l81.6 241.43a28 28 0 0 0 53 0L429.86 476a28 28 0 0 0-53-17.91zM492.48 467v248.74a28 28 0 1 0 55.92 0V467a28 28 0 1 0-55.92 0zM725.29 439h-87.8a28 28 0 0 0-28 28v248.74a28 28 0 1 0 55.92 0V612h59.84a28.14 28.14 0 0 0 5.65-0.57c45-3 80.84-40.15 80.84-85.91s-35.74-82.94-80.8-85.91a28.14 28.14 0 0 0-5.65-0.61z m0 117.06h-59.84V495h59.84a30.57 30.57 0 1 1 0 61.14z" fill="#8A8A8A" p-id="2035"></path></svg>